# xmcd
#
# Track frame offsets:
#   150
#   13788
#   28946
#   47231
#   62338
#   76267
#   92381
#   105609
#   119720
#   136105
#   153250
#   167571
#   181381
#   199543
#   215234
#   234797
#   247593
#
# Disc length: 3515 seconds
#
# Revision: 0
# Processed by: cddbd v1.5.1PL0 Copyright (c) Steve Scherf et al.
# Submitted via: Media_Universe 3.0
#
DISCID=d20db911
DTITLE=Randy Travis - Randy Travis
DYEAR=1900
DGENRE=Country
TTITLE0=Pray For The Fish
TTITLE1=Three Wooden Crosses
TTITLE2=Raise Him Up
TTITLE3=The Box
TTITLE4=A Father's Love
TTITLE5=A Man Aint Made OfStone
TTITLE6=An Old Pair Of Shoes
TTITLE7=Forever Together
TTITLE8=Good Intentions
TTITLE9=King Of The Road
TTITLE10=Look Heart No Hands
TTITLE11=No Stoppin Us Now
TTITLE12=Promises
TTITLE13=The Truth Is Lying Next To You
TTITLE14=You Are Worthy Of My Praise
TTITLE15=Do I Ever Cross Your Mind
TTITLE16=Forever And Ever Amen
EXTD=
EXTT0=
EXTT1=
EXTT2=
EXTT3=
EXTT4=
EXTT5=
EXTT6=
EXTT7=
EXTT8=
EXTT9=
EXTT10=
EXTT11=
EXTT12=
EXTT13=
EXTT14=
EXTT15=
EXTT16=
PLAYORDER=
